ffmpeg started on 2016-12-06 at 13:08:44
Report written to "Output/x264/results/ffmpeg/Tsintelfast15000k.log"
Command line:
Tools/ffmpeg/ffmpeg -i Output/x264/encoded/sintelfast15000k.mkv -c:v rawvideo -pix_fmt yuv420p Output/x264/transcoded/sintelfast15000k.yuv
ffmpeg version N-82227-gdb23fde Copyright (c) 2000-2016 the FFmpeg developers
  built with gcc 5.4.0 (Ubuntu 5.4.0-6ubuntu1~16.04.2) 20160609
  configuration: --prefix=/home/jaroslav/ffmpeg_build --pkg-config-flags=--static --extra-cflags=-I/home/jaroslav/ffmpeg_build/include --extra-ldflags=-L/home/jaroslav/ffmpeg_build/lib --bindir=/home/jaroslav/bin --enable-gpl --enable-libass --enable-libfdk-aac --enable-libfreetype --enable-libmp3lame --enable-libopus --enable-libtheora --enable-libvorbis --enable-libvpx --enable-libx264 --enable-libx265 --enable-nvenc --enable-libmfx --enable-libxvid --enable-libgsm --enable-libopencore-amrnb --enable-version3 --enable-nonfree
  libavutil      55. 35.100 / 55. 35.100
  libavcodec     57. 66.101 / 57. 66.101
  libavformat    57. 57.100 / 57. 57.100
  libavdevice    57.  2.100 / 57.  2.100
  libavfilter     6. 66.100 /  6. 66.100
  libswscale      4.  3.100 /  4.  3.100
  libswresample   2.  4.100 /  2.  4.100
  libpostproc    54.  2.100 / 54.  2.100
Input #0, matroska,webm, from 'Output/x264/encoded/sintelfast15000k.mkv':
  Metadata:
    ENCODER         : Lavf57.57.100
  Duration: 00:00:20.83, start: 0.000000, bitrate: 13624 kb/s
    Stream #0:0: Video: h264 (High), yuv420p(progressive), 4096x1744 [SAR 1:1 DAR 256:109], 24 fps, 24 tbr, 1k tbn, 48 tbc (default)
    Metadata:
      ENCODER         : Lavc57.66.101 libx264
      DURATION        : 00:00:20.834000000
Output #0, rawvideo, to 'Output/x264/transcoded/sintelfast15000k.yuv':
  Metadata:
    encoder         : Lavf57.57.100
    Stream #0:0: Video: rawvideo (I420 / 0x30323449), yuv420p, 4096x1744 [SAR 1:1 DAR 256:109], q=2-31, 200 kb/s, 24 fps, 24 tbn, 24 tbc (default)
    Metadata:
      DURATION        : 00:00:20.834000000
      encoder         : Lavc57.66.101 rawvideo
Stream mapping:
  Stream #0:0 -> #0:0 (h264 (native) -> rawvideo (native))
Press [q] to stop, [?] for help
frame=   17 fps=0.0 q=-0.0 size=  177888kB time=00:00:00.70 bitrate=2057307.1kbits/s speed=1.38x    frame=   38 fps= 37 q=-0.0 size=  397632kB time=00:00:01.58 bitrate=2057306.5kbits/s speed=1.53x    frame=   59 fps= 38 q=-0.0 size=  617376kB time=00:00:02.45 bitrate=2057306.4kbits/s speed=1.58x    frame=   80 fps= 38 q=-0.0 size=  837120kB time=00:00:03.33 bitrate=2057306.3kbits/s speed= 1.6x    frame=  101 fps= 39 q=-0.0 size= 1056864kB time=00:00:04.20 bitrate=2057306.3kbits/s speed=1.62x    frame=  122 fps= 39 q=-0.0 size= 1276608kB time=00:00:05.08 bitrate=2057306.2kbits/s speed=1.63x    frame=  143 fps= 39 q=-0.0 size= 1496352kB time=00:00:05.95 bitrate=2057306.2kbits/s speed=1.63x    frame=  164 fps= 39 q=-0.0 size= 1716096kB time=00:00:06.83 bitrate=2057306.2kbits/s speed=1.64x    frame=  185 fps= 39 q=-0.0 size= 1935840kB time=00:00:07.70 bitrate=2057306.2kbits/s speed=1.64x    frame=  205 fps= 39 q=-0.0 size= 2145120kB time=00:00:08.54 bitrate=2057306.0kbits/s speed=1.64x    frame=  225 fps= 39 q=-0.0 size= 2354400kB time=00:00:09.37 bitrate=2057306.1kbits/s speed=1.64x    frame=  245 fps= 39 q=-0.0 size= 2563680kB time=00:00:10.20 bitrate=2057306.2kbits/s speed=1.64x    frame=  265 fps= 39 q=-0.0 size= 2772960kB time=00:00:11.04 bitrate=2057306.0kbits/s speed=1.64x    frame=  285 fps= 39 q=-0.0 size= 2982240kB time=00:00:11.87 bitrate=2057306.1kbits/s speed=1.64x    frame=  305 fps= 39 q=-0.0 size= 3191520kB time=00:00:12.70 bitrate=2057306.2kbits/s speed=1.64x    frame=  324 fps= 39 q=-0.0 size= 3390336kB time=00:00:13.50 bitrate=2057306.1kbits/s speed=1.64x    frame=  339 fps= 39 q=-0.0 size= 3547296kB time=00:00:14.12 bitrate=2057306.1kbits/s speed=1.61x    frame=  357 fps= 39 q=-0.0 size= 3735648kB time=00:00:14.87 bitrate=2057306.1kbits/s speed=1.61x    frame=  375 fps= 38 q=-0.0 size= 3924000kB time=00:00:15.62 bitrate=2057306.1kbits/s speed= 1.6x    frame=  392 fps= 38 q=-0.0 size= 4101888kB time=00:00:16.33 bitrate=2057306.2kbits/s speed=1.59x    frame=  410 fps= 38 q=-0.0 size= 4290240kB time=00:00:17.08 bitrate=2057306.2kbits/s speed=1.58x    frame=  426 fps= 38 q=-0.0 size= 4457664kB time=00:00:17.75 bitrate=2057306.1kbits/s speed=1.57x    frame=  445 fps= 38 q=-0.0 size= 4656480kB time=00:00:18.54 bitrate=2057306.1kbits/s speed=1.57x    frame=  462 fps= 38 q=-0.0 size= 4834368kB time=00:00:19.25 bitrate=2057306.1kbits/s speed=1.56x    frame=  476 fps= 37 q=-0.0 size= 4980864kB time=00:00:19.83 bitrate=2057306.1kbits/s speed=1.55x    frame=  493 fps= 37 q=-0.0 size= 5158752kB time=00:00:20.54 bitrate=2057306.1kbits/s speed=1.54x    frame=  500 fps= 37 q=-0.0 Lsize= 5232000kB time=00:00:20.83 bitrate=2057306.1kbits/s speed=1.54x    
video:5232000kB audio:0kB subtitle:0kB other streams:0kB global headers:0kB muxing overhead: 0.000000%
